# xmcd
#
# Track frame offsets: 
#        150
#        27518
#        47488
#        68988
#        89800
#        120683
#        136323
#        155810
#        183818
#        201008
#        221363
#        245267
#        275948
#        309482
#        340593
#
# Disc length: 4583 seconds
#
# Revision: 3
# Processed by: cddbd v1.5.2PL0 Copyright (c) Steve Scherf et al.
# Submitted via: ExactAudioCopy v0.99pb5
#
DISCID=df11e50f
DTITLE=Various Artist - Ferry Maat's Soulshow: Funky #5 CD2
DYEAR=2007
DGENRE=Funk
TTITLE0=Total Contrast - Hit And Run
TTITLE1=Deniece Williams - Do What You Feel
TTITLE2=Luther Vandross - You're The Sweetest One
TTITLE3=Slave - Stellar Fungk
TTITLE4=Patrice Rushen - Never Give You Up
TTITLE5=Pockets - Heaven Only Knows
TTITLE6=Champaign - Let Your Body Rock
TTITLE7=Sister Sledge - He's The Greatest Dancer
TTITLE8=Peabo Bryson - Go For It
TTITLE9=Tomorrows Edition - U Turn Me On
TTITLE10=Stargard - Wear It Out
TTITLE11=Roger - I Heard It Through The Grapewine
TTITLE12=Stone - Time
TTITLE13=Raw Silk - Just In Time
TTITLE14=Soulshow Jingle - Let Me Funk The Bass
EXTD=
EXTT0=
EXTT1=
EXTT2=
EXTT3=
EXTT4=
EXTT5=
EXTT6=
EXTT7=
EXTT8=
EXTT9=
EXTT10=
EXTT11=
EXTT12=
EXTT13=
EXTT14=
PLAYORDER=
